<svg width="18" height="19" viewBox="0 0 18 19" fill="none" xmlns="http://www.w3.org/2000/svg">
<path d="M9 0.5C7.21997 0.5 5.47991 1.02784 3.99987 2.01677C2.51983 3.00571 1.36628 4.41131 0.685088 6.05585C0.0038995 7.70038 -0.17433 9.50998 0.172937 11.2558C0.520203 13.0016 1.37737 14.6053 2.63604 15.864C3.89472 17.1226 5.49836 17.9798 7.24419 18.3271C8.99002 18.6743 10.7996 18.4961 12.4442 17.8149C14.0887 17.1337 15.4943 15.9802 16.4832 14.5001C17.4722 13.0201 18 11.28 18 9.5C17.9976 7.11379 17.0486 4.826 15.3613 3.13869C13.674 1.45139 11.3862 0.502404 9 0.5ZM12.5145 10.0675H9.56747V13.0145C9.56747 13.165 9.50768 13.3093 9.40126 13.4158C9.29484 13.5222 9.1505 13.582 9 13.582C8.8495 13.582 8.70516 13.5222 8.59874 13.4158C8.49232 13.3093 8.43254 13.165 8.43254 13.0145V10.0675H5.4855C5.335 10.0675 5.19066 10.0077 5.08424 9.90126C4.97782 9.79484 4.91804 9.6505 4.91804 9.5C4.91804 9.3495 4.97782 9.20516 5.08424 9.09874C5.19066 8.99232 5.335 8.93253 5.4855 8.93253H8.43254V5.9855C8.43254 5.835 8.49232 5.69066 8.59874 5.58424C8.70516 5.47782 8.8495 5.41803 9 5.41803C9.1505 5.41803 9.29484 5.47782 9.40126 5.58424C9.50768 5.69066 9.56747 5.835 9.56747 5.9855V8.93253H12.5145C12.665 8.93253 12.8093 8.99232 12.9158 9.09874C13.0222 9.20516 13.082 9.3495 13.082 9.5C13.082 9.6505 13.0222 9.79484 12.9158 9.90126C12.8093 10.0077 12.665 10.0675 12.5145 10.0675Z" fill="url(#paint0_linear_1470_4043)"/>
<defs>
<linearGradient id="paint0_linear_1470_4043" x1="3.46154" y1="3.26923" x2="14.8846" y2="16.7692" gradientUnits="userSpaceOnUse">
<stop stop-color="#6E0674"/>
<stop offset="1" stop-color="#4660AF"/>
</linearGradient>
</defs>
</svg>
