<svg width="18" height="19" viewBox="0 0 18 19" fill="none" xmlns="http://www.w3.org/2000/svg">
<path d="M15.3 2.3H14.4V1.4C14.4 0.86 14.04 0.5 13.5 0.5C12.96 0.5 12.6 0.86 12.6 1.4V2.3H5.4V1.4C5.4 0.86 5.04 0.5 4.5 0.5C3.96 0.5 3.6 0.86 3.6 1.4V2.3H2.7C1.17 2.3 0 3.47 0 5V5.9H18V5C18 3.47 16.83 2.3 15.3 2.3ZM0 15.8C0 17.33 1.17 18.5 2.7 18.5H15.3C16.83 18.5 18 17.33 18 15.8V7.7H0V15.8ZM13.5 9.5C14.04 9.5 14.4 9.86 14.4 10.4C14.4 10.94 14.04 11.3 13.5 11.3C12.96 11.3 12.6 10.94 12.6 10.4C12.6 9.86 12.96 9.5 13.5 9.5ZM13.5 13.1C14.04 13.1 14.4 13.46 14.4 14C14.4 14.54 14.04 14.9 13.5 14.9C12.96 14.9 12.6 14.54 12.6 14C12.6 13.46 12.96 13.1 13.5 13.1ZM9 9.5C9.54 9.5 9.9 9.86 9.9 10.4C9.9 10.94 9.54 11.3 9 11.3C8.46 11.3 8.1 10.94 8.1 10.4C8.1 9.86 8.46 9.5 9 9.5ZM9 13.1C9.54 13.1 9.9 13.46 9.9 14C9.9 14.54 9.54 14.9 9 14.9C8.46 14.9 8.1 14.54 8.1 14C8.1 13.46 8.46 13.1 9 13.1ZM4.5 9.5C5.04 9.5 5.4 9.86 5.4 10.4C5.4 10.94 5.04 11.3 4.5 11.3C3.96 11.3 3.6 10.94 3.6 10.4C3.6 9.86 3.96 9.5 4.5 9.5ZM4.5 13.1C5.04 13.1 5.4 13.46 5.4 14C5.4 14.54 5.04 14.9 4.5 14.9C3.96 14.9 3.6 14.54 3.6 14C3.6 13.46 3.96 13.1 4.5 13.1Z" fill="url(#paint0_linear_1354_3805)"/>
<defs>
<linearGradient id="paint0_linear_1354_3805" x1="3.46154" y1="3.26923" x2="14.8846" y2="16.7692" gradientUnits="userSpaceOnUse">
<stop stop-color="#6E0674"/>
<stop offset="1" stop-color="#4660AF"/>
</linearGradient>
</defs>
</svg>
