    <svg width="10" height="7" viewBox="0 0 10 7" fill="none" xmlns="http://www.w3.org/2000/svg">
    <path d="M5.53503 6.35979C5.54115 6.35245 5.5436 6.34266 5.54972 6.33532L9.82118 1.61603C10.0598 1.35051 10.0598 0.91982 9.82118 0.654306C9.81873 0.651859 9.81629 0.650636 9.81384 0.649412C9.76075 0.585121 9.69427 0.533196 9.61903 0.497268C9.5438 0.461341 9.46162 0.442276 9.37825 0.441406H0.834099C0.749199 0.442778 0.665635 0.462775 0.589311 0.499986C0.512987 0.537197 0.445764 0.590713 0.392392 0.656754L0.389945 0.654306C0.274478 0.787902 0.210938 0.958587 0.210938 1.13517C0.210938 1.31175 0.274478 1.48243 0.389945 1.61603L4.6712 6.35979C4.7245 6.42226 4.79071 6.47243 4.86528 6.50684C4.93985 6.54124 5.02099 6.55905 5.10312 6.55905C5.18524 6.55905 5.26638 6.54124 5.34095 6.50684C5.41552 6.47243 5.48173 6.42226 5.53503 6.35979V6.35979Z" fill="url(#paint0_linear_1724_3581)"/>
    <defs>
    <linearGradient id="paint0_linear_1724_3581" x1="2.09347" y1="1.38258" x2="5.34706" y2="7.53541" gradientUnits="userSpaceOnUse">
    <stop stop-color="#6E0674"/>
    <stop offset="1" stop-color="#4660AF"/>
    </linearGradient>
    </defs>
    </svg>
