<svg width="268" height="164" viewBox="0 0 268 164" fill="none" xmlns="http://www.w3.org/2000/svg">
<path opacity="0.18" d="M45.5146 20.8714C37.0771 22.659 28.3067 24.5991 21.5331 29.9378C15.8133 34.4416 6.90081 42.7563 4.20038 49.512C-7.23922 78.0487 5.69446 112.773 30.7992 130.532C42.6062 138.884 57.3217 142.927 67.9328 152.76C74.644 158.978 79.3446 167.21 86.4857 172.926C96.92 181.272 111.008 183.119 124.34 184.012C133.603 184.639 143.226 184.91 151.82 181.39C158.032 178.847 163.294 174.485 168.459 170.186L202.677 141.628C208.175 137.045 213.316 129.745 220.475 129.794C284.904 130.255 289.247 54.4766 190.364 20.913C181.649 17.9543 175.673 9.7297 167.485 5.51346C150.572 -3.19963 131.107 -0.376104 114.048 5.65204C92.3892 13.3258 67.9917 16.0939 45.5146 20.8714Z" fill="url(#paint0_linear_2268_4536)"/>
<defs>
<linearGradient id="paint0_linear_2268_4536" x1="51.3549" y1="28.3682" x2="154.722" y2="205.286" gradientUnits="userSpaceOnUse">
<stop stop-color="#6E0674"/>
<stop offset="1" stop-color="#4660AF"/>
</linearGradient>
</defs>
</svg>
