<svg width="19" height="19" viewBox="0 0 19 19" fill="none" xmlns="http://www.w3.org/2000/svg">
<path d="M12.7716 2.26899C12.7356 2.49399 12.7176 2.71899 12.7176 2.94398C12.7176 4.96895 14.3555 6.60603 16.3715 6.60603C16.5965 6.60603 16.8125 6.57993 17.0375 6.54393V13.8059C17.0375 16.8578 15.2375 18.6667 12.1776 18.6667H5.52758C2.46672 18.6667 0.666748 16.8578 0.666748 13.8059V7.14692C0.666748 4.08697 2.46672 2.26899 5.52758 2.26899H12.7716ZM12.9525 7.74091C12.7086 7.71391 12.4665 7.82191 12.3216 8.01991L10.1445 10.8369L7.65064 8.8749C7.49765 8.7579 7.31765 8.712 7.13765 8.7309C6.95855 8.7579 6.79656 8.856 6.68766 8.99999L4.0246 12.4658L3.9697 12.5468C3.8167 12.8339 3.8887 13.2029 4.1587 13.4018C4.28469 13.4828 4.41969 13.5368 4.57269 13.5368C4.78059 13.5458 4.97768 13.4369 5.10368 13.2668L7.36265 10.359L9.92761 12.2858L10.0086 12.3389C10.2966 12.4919 10.6566 12.4208 10.8636 12.1499L13.4646 8.7939L13.4286 8.8119C13.5726 8.6139 13.5996 8.3619 13.5006 8.13691C13.4025 7.91191 13.1856 7.75891 12.9525 7.74091ZM16.4976 0.666748C17.6946 0.666748 18.6666 1.63873 18.6666 2.83572C18.6666 4.0327 17.6946 5.00468 16.4976 5.00468C15.3006 5.00468 14.3286 4.0327 14.3286 2.83572C14.3286 1.63873 15.3006 0.666748 16.4976 0.666748Z" fill="#8E9BAA"/>
</svg>
