<svg width="31" height="31" viewBox="0 0 31 31" fill="none" xmlns="http://www.w3.org/2000/svg">
<g clip-path="url(#clip0_317_1503)">
<path d="M0 15.1685C0 6.79118 6.79118 0 15.1685 0C23.5459 0 30.3371 6.79118 30.3371 15.1685C30.3371 23.5459 23.5459 30.3371 15.1685 30.3371C6.79118 30.3371 0 23.5459 0 15.1685Z" fill="#872E92" fill-opacity="0.1"/>
<path d="M18.3034 17.5957V18.8091C18.3034 20.4271 20.6292 21.135 20.6292 21.135C20.6292 21.135 17.9495 23.1575 15.1686 23.1575C12.3877 23.1575 9.70789 21.135 9.70789 21.135C9.70789 21.135 12.052 20.4271 12.0337 18.8091C12.0154 17.1912 12.0277 16.2406 12.0154 13.4686C10.5661 11.59 10.6592 10.3292 11.4517 9.44257C14.1068 6.47207 21.3371 7.4833 21.3371 7.4833C21.3371 7.4833 22.0118 14.7635 20.4775 16.8878C19.8202 17.7979 18.3034 17.5957 18.3034 17.5957Z" fill="#FFE4D2"/>
<g style="mix-blend-mode:multiply" opacity="0.6">
<path d="M18.3034 17.5953C16.0786 17.3425 14.764 16.3818 14.764 16.3818C15.594 17.6097 16.8589 18.4771 18.3034 18.8088V17.5953Z" fill="#FFCCA9"/>
</g>
<path d="M25.7865 24.1995C26.7492 26.1569 27.3034 30.6714 27.3034 30.6714H3.03369C3.03369 30.6714 3.58805 26.1564 4.55055 24.1995C5.51304 22.2425 11.1337 20.4275 11.1337 20.4275C12.217 22.6515 18.1626 22.6515 19.2004 20.4268C19.2004 20.4268 24.8238 22.242 25.7865 24.1995Z" fill="url(#paint0_linear_317_1503)"/>
<path d="M14.764 28.1125C14.764 28.0325 14.7878 27.9543 14.8322 27.8878C14.8767 27.8213 14.9398 27.7694 15.0137 27.7388C15.0877 27.7082 15.169 27.7002 15.2474 27.7158C15.3259 27.7314 15.398 27.7699 15.4546 27.8265C15.5111 27.8831 15.5496 27.9551 15.5653 28.0336C15.5809 28.1121 15.5729 28.1934 15.5422 28.2673C15.5116 28.3412 15.4598 28.4044 15.3933 28.4488C15.3267 28.4933 15.2485 28.517 15.1685 28.517C15.0613 28.517 14.9584 28.4744 14.8825 28.3985C14.8067 28.3227 14.764 28.2198 14.764 28.1125ZM14.764 26.0901C14.764 26.0101 14.7878 25.9318 14.8322 25.8653C14.8767 25.7988 14.9398 25.747 15.0137 25.7163C15.0877 25.6857 15.169 25.6777 15.2474 25.6933C15.3259 25.7089 15.398 25.7475 15.4546 25.804C15.5111 25.8606 15.5496 25.9327 15.5653 26.0111C15.5809 26.0896 15.5729 26.1709 15.5422 26.2448C15.5116 26.3188 15.4598 26.3819 15.3933 26.4264C15.3267 26.4708 15.2485 26.4945 15.1685 26.4945C15.0613 26.4945 14.9584 26.4519 14.8825 26.3761C14.8067 26.3002 14.764 26.1973 14.764 26.0901ZM14.764 24.0676C14.764 23.9876 14.7878 23.9094 14.8322 23.8429C14.8767 23.7763 14.9398 23.7245 15.0137 23.6939C15.0877 23.6633 15.169 23.6553 15.2474 23.6709C15.3259 23.6865 15.398 23.725 15.4546 23.7816C15.5111 23.8381 15.5496 23.9102 15.5653 23.9887C15.5809 24.0671 15.5729 24.1485 15.5422 24.2224C15.5116 24.2963 15.4598 24.3595 15.3933 24.4039C15.3267 24.4484 15.2485 24.4721 15.1685 24.4721C15.0613 24.4721 14.9584 24.4295 14.8825 24.3536C14.8067 24.2777 14.764 24.1749 14.764 24.0676Z" fill="white"/>
<path d="M13.2629 10.4366C12.9413 10.1604 12.5506 9.97448 11.9982 10.2615C10.6888 10.9413 11.6798 13.5503 12.8427 13.5503C13.1461 13.5503 13.297 14.5031 11.9463 15.1683C11.9463 14.1065 10.3283 11.4773 10.1867 9.08348C8.55862 8.47724 8.96311 6.05159 10.0808 6.05159C9.90245 3.82809 13.4631 2.67953 14.8418 3.95561C16.244 2.27503 19.7833 3.13458 19.997 4.59258C22.4308 3.29345 24.0305 7.02784 21.7517 8.47755C20.814 9.07418 18.6204 9.3012 15.4539 9.3012C14.9759 9.3012 14.7081 9.41992 14.8418 10.011C15.1006 11.1563 14.4998 11.8777 13.2629 10.4366Z" fill="#212121"/>
</g>
<defs>
<linearGradient id="paint0_linear_317_1503" x1="7.70093" y1="22.0029" x2="11.8774" y2="33.6958" gradientUnits="userSpaceOnUse">
<stop stop-color="#6E0674"/>
<stop offset="1" stop-color="#4660AF"/>
</linearGradient>
<clipPath id="clip0_317_1503">
<path d="M0 15.1685C0 6.79118 6.79118 0 15.1685 0C23.5459 0 30.3371 6.79118 30.3371 15.1685C30.3371 23.5459 23.5459 30.3371 15.1685 30.3371C6.79118 30.3371 0 23.5459 0 15.1685Z" fill="white"/>
</clipPath>
</defs>
</svg>
