<svg width="62" height="61" viewBox="0 0 62 61" fill="none" xmlns="http://www.w3.org/2000/svg">
<g filter="url(#filter0_d_3664_5228)">
<rect x="6" y="2" width="50" height="50" rx="12" fill="#E1EFFF"/>
</g>
<path d="M38.5889 31.2485C38.5159 31.1606 38.4443 31.0727 38.374 30.9879C37.4072 29.8185 36.8223 29.1127 36.8223 25.8023C36.8223 24.0885 36.4123 22.6822 35.6041 21.6275C35.0082 20.8484 34.2027 20.2573 33.141 19.8205C33.1273 19.8129 33.1151 19.8029 33.1049 19.7911C32.723 18.5123 31.678 17.6558 30.4994 17.6558C29.3208 17.6558 28.2762 18.5123 27.8943 19.7897C27.8841 19.8012 27.8721 19.8108 27.8587 19.8183C25.3811 20.8383 24.177 22.7952 24.177 25.801C24.177 29.1127 23.593 29.8185 22.6253 30.9866C22.555 31.0714 22.4833 31.1575 22.4104 31.2472C22.222 31.4744 22.1026 31.7509 22.0664 32.0439C22.0301 32.3369 22.0786 32.6341 22.2061 32.9004C22.4772 33.4717 23.0551 33.8263 23.7147 33.8263H37.289C37.9455 33.8263 38.5194 33.4721 38.7914 32.9035C38.9194 32.6371 38.9684 32.3396 38.9325 32.0463C38.8966 31.753 38.7773 31.4761 38.5889 31.2485Z" fill="#0063DA"/>
<path d="M30.5002 37.3438C31.1353 37.3432 31.7583 37.1709 32.3033 36.8449C32.8483 36.519 33.2949 36.0516 33.5957 35.4923C33.6099 35.4655 33.6169 35.4355 33.6161 35.4052C33.6152 35.3749 33.6065 35.3453 33.5909 35.3194C33.5752 35.2934 33.5531 35.2719 33.5267 35.2571C33.5003 35.2422 33.4705 35.2343 33.4402 35.2344H27.5612C27.5308 35.2343 27.5009 35.242 27.4745 35.2569C27.448 35.2718 27.4258 35.2932 27.4101 35.3192C27.3944 35.3452 27.3857 35.3748 27.3848 35.4051C27.384 35.4355 27.391 35.4655 27.4052 35.4923C27.706 36.0515 28.1525 36.5188 28.6974 36.8448C29.2423 37.1707 29.8653 37.3432 30.5002 37.3438Z" fill="#0063DA"/>
<defs>
<filter id="filter0_d_3664_5228" x="0.5" y="4.76837e-07" width="61" height="61" filterUnits="userSpaceOnUse" color-interpolation-filters="sRGB">
<feFlood flood-opacity="0" result="BackgroundImageFix"/>
<feColorMatrix in="SourceAlpha" type="matrix" values="0 0 0 0 0 0 0 0 0 0 0 0 0 0 0 0 0 0 127 0" result="hardAlpha"/>
<feOffset dy="3.5"/>
<feGaussianBlur stdDeviation="2.75"/>
<feColorMatrix type="matrix" values="0 0 0 0 0 0 0 0 0 0 0 0 0 0 0 0 0 0 0.02 0"/>
<feBlend mode="normal" in2="BackgroundImageFix" result="effect1_dropShadow_3664_5228"/>
<feBlend mode="normal" in="SourceGraphic" in2="effect1_dropShadow_3664_5228" result="shape"/>
</filter>
</defs>
</svg>
