<svg width="21" height="21" viewBox="0 0 21 21" fill="none" xmlns="http://www.w3.org/2000/svg">
<rect width="21" height="21" fill="#F5F5F5"/>
<g clip-path="url(#clip0_2879_4538)">
<rect x="-1169" y="-108" width="1440" height="812" rx="40" fill="#F4F6FA"/>
<rect x="-1169" y="-108" width="1440" height="812" fill="#FCFAF8"/>
<rect x="-15.96" y="-7.30005" width="201" height="36" rx="6" fill="white"/>
<path d="M3.3734 20.7H16.7067C17.5908 20.7 18.4386 20.3487 19.0638 19.7237C19.6888 19.0985 20.04 18.2507 20.04 17.3666V4.03331C20.04 3.14916 19.6888 2.30136 19.0638 1.67621C18.4386 1.05118 17.5908 0.699951 16.7067 0.699951H3.3734C2.48925 0.699951 1.64145 1.05119 1.0163 1.67621C0.391266 2.3014 0.0400391 3.1492 0.0400391 4.03331V17.3666C0.0400391 18.2507 0.39128 19.0985 1.0163 19.7237C1.64148 20.3487 2.48929 20.7 3.3734 20.7ZM16.7067 19.0333H3.3734C2.93132 19.0333 2.50744 18.8577 2.19483 18.5451C1.88222 18.2325 1.7067 17.8086 1.7067 17.3666V7.36659H18.3733V17.3666C18.3733 17.8086 18.1978 18.2325 17.8852 18.5451C17.5726 18.8577 17.1487 19.0333 16.7066 19.0333H16.7067ZM3.3734 2.36665H16.7067C17.1488 2.36665 17.5726 2.5422 17.8852 2.85478C18.1979 3.16736 18.3734 3.59127 18.3734 4.03335V5.70004H1.70677V4.03335C1.70677 3.59127 1.88232 3.16739 2.1949 2.85478C2.50749 2.54217 2.9314 2.36665 3.37347 2.36665H3.3734Z" fill="#0063DA"/>
<path d="M5.87345 13.2C5.87345 13.6602 5.50042 14.0334 5.04019 14.0334C4.57996 14.0334 4.20679 13.6602 4.20679 13.2C4.20679 12.7397 4.57996 12.3667 5.04019 12.3667C5.50042 12.3667 5.87345 12.7397 5.87345 13.2Z" fill="#0063DA"/>
<path d="M5.87345 16.5334C5.87345 16.9936 5.50042 17.3666 5.04019 17.3666C4.57996 17.3666 4.20679 16.9936 4.20679 16.5334C4.20679 16.0731 4.57996 15.7 5.04019 15.7C5.50042 15.7 5.87345 16.0731 5.87345 16.5334Z" fill="#0063DA"/>
<path d="M9.2067 13.2C9.2067 13.6602 8.83352 14.0334 8.3733 14.0334C7.91307 14.0334 7.54004 13.6602 7.54004 13.2C7.54004 12.7397 7.91307 12.3667 8.3733 12.3667C8.83352 12.3667 9.2067 12.7397 9.2067 13.2Z" fill="#0063DA"/>
<path d="M9.2067 16.5334C9.2067 16.9936 8.83352 17.3666 8.3733 17.3666C7.91307 17.3666 7.54004 16.9936 7.54004 16.5334C7.54004 16.0731 7.91307 15.7 8.3733 15.7C8.83352 15.7 9.2067 16.0731 9.2067 16.5334Z" fill="#0063DA"/>
<path d="M12.54 13.2C12.54 13.6602 12.1669 14.0334 11.7067 14.0334C11.2465 14.0334 10.8733 13.6602 10.8733 13.2C10.8733 12.7397 11.2465 12.3667 11.7067 12.3667C12.1669 12.3667 12.54 12.7397 12.54 13.2Z" fill="#0063DA"/>
<path d="M12.54 16.5334C12.54 16.9936 12.1669 17.3666 11.7067 17.3666C11.2465 17.3666 10.8733 16.9936 10.8733 16.5334C10.8733 16.0731 11.2465 15.7 11.7067 15.7C12.1669 15.7 12.54 16.0731 12.54 16.5334Z" fill="#0063DA"/>
<path d="M15.8734 13.2C15.8734 13.6602 15.5003 14.0334 15.04 14.0334C14.5798 14.0334 14.2068 13.6602 14.2068 13.2C14.2068 12.7397 14.5798 12.3667 15.04 12.3667C15.5003 12.3667 15.8734 12.7397 15.8734 13.2Z" fill="#0063DA"/>
<path d="M9.2067 9.86661C9.2067 10.3268 8.83352 10.6999 8.3733 10.6999C7.91307 10.6999 7.54004 10.3268 7.54004 9.86661C7.54004 9.40638 7.91307 9.0332 8.3733 9.0332C8.83352 9.0332 9.2067 9.40638 9.2067 9.86661Z" fill="#0063DA"/>
<path d="M12.54 9.86661C12.54 10.3268 12.1669 10.6999 11.7067 10.6999C11.2465 10.6999 10.8733 10.3268 10.8733 9.86661C10.8733 9.40638 11.2465 9.0332 11.7067 9.0332C12.1669 9.0332 12.54 9.40638 12.54 9.86661Z" fill="#0063DA"/>
<path d="M15.8734 9.86661C15.8734 10.3268 15.5003 10.6999 15.04 10.6999C14.5798 10.6999 14.2068 10.3268 14.2068 9.86661C14.2068 9.40638 14.5798 9.0332 15.04 9.0332C15.5003 9.0332 15.8734 9.40638 15.8734 9.86661Z" fill="#0063DA"/>
</g>
<defs>
<clipPath id="clip0_2879_4538">
<rect x="-1169" y="-108" width="1440" height="812" rx="40" fill="white"/>
</clipPath>
</defs>
</svg>
