<svg width="55" height="57" viewBox="0 0 55 57" fill="none" xmlns="http://www.w3.org/2000/svg">
<rect x="0.541992" y="0.0651855" width="54.4007" height="56.7391" rx="15.1304" fill="#FFEFCA"/>
<path d="M28 16.0001C24.8174 16.0001 21.7653 17.2644 19.5147 19.5148C17.2643 21.7654 16 24.8178 16 28C16 31.1823 17.2643 34.2347 19.5147 36.4853C21.7653 38.7357 24.8177 40 28 40C31.1822 40 34.2346 38.7357 36.4852 36.4853C38.7356 34.2347 39.9999 31.1823 39.9999 28C39.9999 25.8935 39.4455 23.8243 38.3922 22C37.3389 20.1757 35.8242 18.661 33.9999 17.6077C32.1756 16.5545 30.1064 16 27.9999 16L28 16.0001ZM32.1143 31.0859C31.9524 31.3017 31.6983 31.4287 31.4285 31.4287C31.2431 31.4287 31.0625 31.3687 30.9142 31.2573L27.4857 28.6859C27.2698 28.524 27.1428 28.2699 27.1428 28.0001V21.143C27.1428 20.8367 27.3062 20.5537 27.5714 20.4006C27.8366 20.2476 28.1633 20.2476 28.4285 20.4006C28.6937 20.5537 28.8571 20.8367 28.8571 21.143V27.5716L31.9428 29.8859C32.1248 30.0223 32.2449 30.2253 32.2771 30.4503C32.3092 30.6755 32.2507 30.9039 32.1143 31.0859Z" fill="#FEB95A"/>
</svg>
