<svg width="21" height="18" viewBox="0 0 21 18" fill="none" xmlns="http://www.w3.org/2000/svg">
<path fill-rule="evenodd" clip-rule="evenodd" d="M7.9165 0C3.91245 0 0.666504 3.24595 0.666504 7.25C0.666504 16.25 12.6665 18 12.6665 18V14.5H13.4165C17.4206 14.5 20.6665 11.254 20.6665 7.25C20.6665 3.24595 17.4206 0 13.4165 0H7.9165ZM10.6665 8.75C11.3569 8.75 11.9165 8.19035 11.9165 7.5C11.9165 6.80965 11.3569 6.25 10.6665 6.25C9.97615 6.25 9.4165 6.80965 9.4165 7.5C9.4165 8.19035 9.97615 8.75 10.6665 8.75ZM15.9165 7.5C15.9165 8.19035 15.3569 8.75 14.6665 8.75C13.9762 8.75 13.4165 8.19035 13.4165 7.5C13.4165 6.80965 13.9762 6.25 14.6665 6.25C15.3569 6.25 15.9165 6.80965 15.9165 7.5ZM6.6665 8.75C7.35685 8.75 7.9165 8.19035 7.9165 7.5C7.9165 6.80965 7.35685 6.25 6.6665 6.25C5.97615 6.25 5.4165 6.80965 5.4165 7.5C5.4165 8.19035 5.97615 8.75 6.6665 8.75Z" fill="#8E9BAA"/>
</svg>
