<svg width="55" height="57" viewBox="0 0 55 57" fill="none" xmlns="http://www.w3.org/2000/svg">
<rect x="0.541992" y="0.195557" width="54.4007" height="56.7391" rx="15.1304" fill="#FFEFCA"/>
<path d="M27.3624 23.4368C26.9606 23.4368 26.5753 23.5963 26.2914 23.8805C26.0074 24.1644 25.8477 24.5498 25.8477 24.9512V28.1393C25.8469 28.9303 26.0568 29.7073 26.4562 30.3901C26.8555 31.0731 27.4297 31.6369 28.1196 32.0241L30.0127 33.0806C30.4863 33.3428 31.0636 33.3328 31.5277 33.0542C31.9917 32.7753 32.2717 32.27 32.2621 31.7288C32.2526 31.1876 31.9552 30.6925 31.4817 30.4302L29.5885 29.3737C29.3714 29.2493 29.1913 29.0695 29.0661 28.8526C28.9412 28.6358 28.8757 28.3897 28.8767 28.1393V24.9512C28.8767 24.5497 28.7172 24.1644 28.4333 23.8805C28.1491 23.5963 27.764 23.4368 27.3623 23.4368L27.3624 23.4368Z" fill="#FEB95A"/>
<path d="M37.6326 34.248L34.0016 37.879H34.0014C33.8772 37.9968 33.6826 37.9968 33.5585 37.879L32.1991 36.5197L32.1994 36.5199C31.8164 36.137 31.2583 35.9875 30.7354 36.1277C30.2125 36.2677 29.8042 36.6763 29.6639 37.1992C29.5239 37.7222 29.6734 38.28 30.0561 38.6629L31.4155 40.0223C32.0425 40.6482 32.8921 41 33.7782 41C34.664 41 35.5139 40.6482 36.1406 40.0223L39.7719 36.391C40.1546 36.0083 40.3041 35.4502 40.1641 34.9273C40.0239 34.4044 39.6153 33.9961 39.0923 33.8558C38.5694 33.7158 38.0116 33.8653 37.6286 34.248L37.6326 34.248Z" fill="#FEB95A"/>
<path d="M28.1195 17C25.1314 16.9992 22.2483 18.1027 20.0242 20.0983C17.8001 22.0939 16.3922 24.841 16.0705 27.8115C15.7488 30.7821 16.5361 33.7673 18.2813 36.1928C20.0265 38.6184 22.6067 40.3132 25.5253 40.9521C26.0541 41.0678 26.6048 40.8927 26.9692 40.4923C27.3339 40.0922 27.4573 39.5277 27.293 39.0119C27.1287 38.4961 26.7017 38.1068 26.1727 37.9914C23.929 37.4993 21.9548 36.1758 20.6474 34.2872C19.3398 32.3985 18.7963 30.085 19.1256 27.8115C19.4552 25.5383 20.6334 23.474 22.4233 22.0343C24.2132 20.5946 26.4819 19.8861 28.7728 20.0514C31.064 20.2167 33.2075 21.2436 34.7721 22.9255C36.3366 24.6073 37.2064 26.8193 37.2058 29.1162C37.2058 29.6574 37.4945 30.1573 37.9633 30.4278C38.4318 30.6982 39.0092 30.6982 39.4777 30.4278C39.9462 30.1573 40.2349 29.6573 40.2349 29.1162C40.2349 26.9893 39.675 24.8999 38.6116 23.058C37.5483 21.2161 36.0188 19.6866 34.1769 18.6233C32.335 17.5599 30.2456 17 28.1187 17L28.1195 17Z" fill="#FEB95A"/>
</svg>
