<svg width="22" height="24" viewBox="0 0 22 24" fill="none" xmlns="http://www.w3.org/2000/svg">
<path d="M1.5 6.5C1.5 5.56812 1.5 5.10218 1.65224 4.73465C1.85522 4.24456 2.24458 3.85523 2.73463 3.65224C3.10217 3.5 3.56811 3.5 4.50002 3.5H5.75001C6.68188 3.5 7.14782 3.5 7.51536 3.65224C8.00541 3.85523 8.39477 4.24456 8.59776 4.73465C8.75001 5.10218 8.75001 5.56812 8.75001 6.5V7.74998C8.75001 8.6819 8.75001 9.14783 8.59776 9.51537C8.39477 10.0054 8.00541 10.3948 7.51536 10.5978C7.14782 10.75 6.68188 10.75 5.75001 10.75H4.50002C3.56811 10.75 3.10217 10.75 2.73463 10.5978C2.24458 10.3948 1.85522 10.0054 1.65224 9.51537C1.5 9.14783 1.5 8.6819 1.5 7.74998V6.5Z" fill="#8E9BAA"/>
<path fill-rule="evenodd" clip-rule="evenodd" d="M4.48225 3H5.76775C6.21865 3 6.58232 2.99999 6.87835 3.02019C7.1827 3.04096 7.45187 3.08474 7.70673 3.1903C8.31929 3.44404 8.80596 3.93071 9.05969 4.54328C9.16525 4.79813 9.20905 5.0673 9.22983 5.37165C9.25 5.66768 9.25 6.03135 9.25 6.48225V7.76775C9.25 8.21865 9.25 8.58236 9.22983 8.87835C9.20905 9.1827 9.16525 9.45187 9.05969 9.70673C8.80596 10.3193 8.31929 10.806 7.70673 11.0597C7.45187 11.1652 7.1827 11.2091 6.87835 11.2298C6.58232 11.25 6.21865 11.25 5.76775 11.25H4.48225C4.03135 11.25 3.66768 11.25 3.37165 11.2298C3.0673 11.2091 2.79813 11.1652 2.54328 11.0597C1.93071 10.806 1.44404 10.3193 1.1903 9.70673C1.08474 9.45187 1.04096 9.1827 1.02019 8.87835C0.999992 8.58232 0.999996 8.21865 1 7.76775V6.48225C0.999996 6.03135 0.999992 5.66768 1.02019 5.37165C1.04096 5.0673 1.08474 4.79813 1.1903 4.54328C1.44404 3.93071 1.93071 3.44404 2.54328 3.1903C2.79813 3.08474 3.0673 3.04096 3.37165 3.02019C3.66768 2.99999 4.03135 3 4.48225 3ZM3.43971 4.01786C3.18625 4.03515 3.03865 4.06751 2.92596 4.11416C2.55843 4.26641 2.26641 4.55843 2.11416 4.92596C2.06751 5.03865 2.03515 5.18625 2.01786 5.43971C2.00028 5.69768 2.00001 6.02722 2.00001 6.49999V7.75001C2.00001 8.22277 2.00028 8.55233 2.01786 8.81029C2.03515 9.06375 2.06751 9.21135 2.11416 9.32404C2.26641 9.69157 2.55843 9.98359 2.92596 10.1358C3.03865 10.1825 3.18625 10.2148 3.43971 10.2321C3.69768 10.2497 4.02722 10.25 4.49999 10.25H5.75001C6.22277 10.25 6.55233 10.2497 6.81029 10.2321C7.06375 10.2148 7.21135 10.1825 7.32404 10.1358C7.69157 9.98359 7.98359 9.69157 8.13584 9.32404C8.18249 9.21135 8.21485 9.06375 8.23214 8.81029C8.24972 8.55233 8.24999 8.22277 8.24999 7.75001V6.49999C8.24999 6.02722 8.24972 5.69768 8.23214 5.43971C8.21485 5.18625 8.18249 5.03865 8.13584 4.92596C7.98359 4.55843 7.69157 4.26641 7.32404 4.11416C7.21135 4.06751 7.06375 4.03515 6.81029 4.01786C6.55233 4.00028 6.22277 4.00001 5.75001 4.00001H4.49999C4.02722 4.00001 3.69768 4.00028 3.43971 4.01786Z" fill="#8E9BAA"/>
<path d="M1.5 16.2498C1.5 15.3179 1.5 14.8519 1.65224 14.4844C1.85522 13.9943 2.24458 13.605 2.73463 13.402C3.10217 13.2498 3.56811 13.2498 4.50002 13.2498H5.75001C6.68188 13.2498 7.14782 13.2498 7.51536 13.402C8.00541 13.605 8.39477 13.9943 8.59776 14.4844C8.75001 14.8519 8.75001 15.3179 8.75001 16.2498V17.4997C8.75001 18.4317 8.75001 18.8976 8.59776 19.2651C8.39477 19.7552 8.00541 20.1445 7.51536 20.3475C7.14782 20.4997 6.68188 20.4997 5.75001 20.4997H4.50002C3.56811 20.4997 3.10217 20.4997 2.73463 20.3475C2.24458 20.1445 1.85522 19.7552 1.65224 19.2651C1.5 18.8976 1.5 18.4317 1.5 17.4997V16.2498Z" fill="#8E9BAA"/>
<path fill-rule="evenodd" clip-rule="evenodd" d="M4.48225 12.75H5.76775C6.21865 12.75 6.58232 12.75 6.87835 12.7702C7.1827 12.7909 7.45187 12.8347 7.70673 12.9403C8.31929 13.194 8.80596 13.6807 9.05969 14.2933C9.16525 14.5481 9.20905 14.8173 9.22983 15.1217C9.25 15.4177 9.25 15.7813 9.25 16.2322V17.5178C9.25 17.9687 9.25 18.3324 9.22983 18.6283C9.20905 18.9327 9.16525 19.2019 9.05969 19.4567C8.80596 20.0693 8.31929 20.556 7.70673 20.8097C7.45187 20.9152 7.1827 20.9591 6.87835 20.9798C6.58232 21 6.21865 21 5.76775 21H4.48225C4.03135 21 3.66768 21 3.37165 20.9798C3.0673 20.9591 2.79813 20.9152 2.54328 20.8097C1.93071 20.556 1.44404 20.0693 1.1903 19.4567C1.08474 19.2019 1.04096 18.9327 1.02019 18.6283C0.999992 18.3323 0.999996 17.9687 1 17.5178V16.2322C0.999996 15.7813 0.999992 15.4177 1.02019 15.1217C1.04096 14.8173 1.08474 14.5481 1.1903 14.2933C1.44404 13.6807 1.93071 13.194 2.54328 12.9403C2.79813 12.8347 3.0673 12.7909 3.37165 12.7702C3.66768 12.75 4.03135 12.75 4.48225 12.75ZM3.43971 13.7679C3.18625 13.7851 3.03865 13.8175 2.92596 13.8642C2.55843 14.0164 2.26641 14.3084 2.11416 14.676C2.06751 14.7886 2.03515 14.9363 2.01786 15.1897C2.00028 15.4477 2.00001 15.7772 2.00001 16.25V17.5C2.00001 17.9728 2.00028 18.3023 2.01786 18.5603C2.03515 18.8137 2.06751 18.9614 2.11416 19.074C2.26641 19.4416 2.55843 19.7336 2.92596 19.8858C3.03865 19.9325 3.18625 19.9649 3.43971 19.9821C3.69768 19.9997 4.02722 20 4.49999 20H5.75001C6.22277 20 6.55233 19.9997 6.81029 19.9821C7.06375 19.9649 7.21135 19.9325 7.32404 19.8858C7.69157 19.7336 7.98359 19.4416 8.13584 19.074C8.18249 18.9614 8.21485 18.8137 8.23214 18.5603C8.24972 18.3023 8.24999 17.9728 8.24999 17.5V16.25C8.24999 15.7772 8.24972 15.4477 8.23214 15.1897C8.21485 14.9363 8.18249 14.7886 8.13584 14.676C7.98359 14.3084 7.69157 14.0164 7.32404 13.8642C7.21135 13.8175 7.06375 13.7851 6.81029 13.7679C6.55233 13.7503 6.22277 13.75 5.75001 13.75H4.49999C4.02722 13.75 3.69768 13.7503 3.43971 13.7679Z" fill="#8E9BAA"/>
<path d="M11.25 6.5C11.25 5.56812 11.25 5.10218 11.4022 4.73465C11.6052 4.24456 11.9946 3.85523 12.4846 3.65224C12.8521 3.5 13.3181 3.5 14.25 3.5H15.5C16.4319 3.5 16.8978 3.5 17.2653 3.65224C17.7554 3.85523 18.1447 4.24456 18.3477 4.73465C18.5 5.10218 18.5 5.56812 18.5 6.5V7.74998C18.5 8.6819 18.5 9.14783 18.3477 9.51537C18.1447 10.0054 17.7554 10.3948 17.2653 10.5978C16.8978 10.75 16.4319 10.75 15.5 10.75H14.25C13.3181 10.75 12.8521 10.75 12.4846 10.5978C11.9946 10.3948 11.6052 10.0054 11.4022 9.51537C11.25 9.14783 11.25 8.6819 11.25 7.74998V6.5Z" fill="#8E9BAA"/>
<path fill-rule="evenodd" clip-rule="evenodd" d="M14.2322 3H15.5178C15.9687 3 16.3323 2.99999 16.6283 3.02019C16.9327 3.04096 17.2019 3.08474 17.4567 3.1903C18.0693 3.44404 18.556 3.93071 18.8097 4.54328C18.9152 4.79813 18.9591 5.0673 18.9798 5.37165C19 5.66768 19 6.03135 19 6.48225V7.76775C19 8.21865 19 8.58236 18.9798 8.87835C18.9591 9.1827 18.9152 9.45187 18.8097 9.70673C18.556 10.3193 18.0693 10.806 17.4567 11.0597C17.2019 11.1652 16.9327 11.2091 16.6283 11.2298C16.3323 11.25 15.9687 11.25 15.5178 11.25H14.2322C13.7813 11.25 13.4177 11.25 13.1217 11.2298C12.8173 11.2091 12.5481 11.1652 12.2933 11.0597C11.6807 10.806 11.194 10.3193 10.9403 9.70673C10.8347 9.45187 10.7909 9.1827 10.7702 8.87835C10.75 8.58232 10.75 8.21865 10.75 7.76775V6.48225C10.75 6.03135 10.75 5.66768 10.7702 5.37165C10.7909 5.0673 10.8347 4.79813 10.9403 4.54328C11.194 3.93071 11.6807 3.44404 12.2933 3.1903C12.5481 3.08474 12.8173 3.04096 13.1217 3.02019C13.4177 2.99999 13.7813 3 14.2322 3ZM13.1897 4.01786C12.9363 4.03515 12.7886 4.06751 12.676 4.11416C12.3084 4.26641 12.0164 4.55843 11.8642 4.92596C11.8175 5.03865 11.7851 5.18625 11.7679 5.43971C11.7503 5.69768 11.75 6.02722 11.75 6.49999V7.75001C11.75 8.22277 11.7503 8.55233 11.7679 8.81029C11.7851 9.06375 11.8175 9.21135 11.8642 9.32404C12.0164 9.69157 12.3084 9.98359 12.676 10.1358C12.7886 10.1825 12.9363 10.2148 13.1897 10.2321C13.4477 10.2497 13.7772 10.25 14.25 10.25H15.5C15.9728 10.25 16.3023 10.2497 16.5603 10.2321C16.8137 10.2148 16.9614 10.1825 17.074 10.1358C17.4416 9.98359 17.7336 9.69157 17.8858 9.32404C17.9325 9.21135 17.9649 9.06375 17.9821 8.81029C17.9997 8.55233 18 8.22277 18 7.75001V6.49999C18 6.02722 17.9997 5.69768 17.9821 5.43971C17.9649 5.18625 17.9325 5.03865 17.8858 4.92596C17.7336 4.55843 17.4416 4.26641 17.074 4.11416C16.9614 4.06751 16.8137 4.03515 16.5603 4.01786C16.3023 4.00028 15.9728 4.00001 15.5 4.00001H14.25C13.7772 4.00001 13.4477 4.00028 13.1897 4.01786Z" fill="#8E9BAA"/>
<path d="M11.25 16.2498C11.25 15.3179 11.25 14.8519 11.4022 14.4844C11.6052 13.9943 11.9946 13.605 12.4846 13.402C12.8521 13.2498 13.3181 13.2498 14.25 13.2498H15.5C16.4319 13.2498 16.8978 13.2498 17.2653 13.402C17.7554 13.605 18.1447 13.9943 18.3477 14.4844C18.5 14.8519 18.5 15.3179 18.5 16.2498V17.4997C18.5 18.4317 18.5 18.8976 18.3477 19.2651C18.1447 19.7552 17.7554 20.1445 17.2653 20.3475C16.8978 20.4997 16.4319 20.4997 15.5 20.4997H14.25C13.3181 20.4997 12.8521 20.4997 12.4846 20.3475C11.9946 20.1445 11.6052 19.7552 11.4022 19.2651C11.25 18.8976 11.25 18.4317 11.25 17.4997V16.2498Z" fill="#8E9BAA"/>
<path fill-rule="evenodd" clip-rule="evenodd" d="M14.2322 12.75H15.5178C15.9687 12.75 16.3323 12.75 16.6283 12.7702C16.9327 12.7909 17.2019 12.8347 17.4567 12.9403C18.0693 13.194 18.556 13.6807 18.8097 14.2933C18.9152 14.5481 18.9591 14.8173 18.9798 15.1217C19 15.4177 19 15.7813 19 16.2322V17.5178C19 17.9687 19 18.3324 18.9798 18.6283C18.9591 18.9327 18.9152 19.2019 18.8097 19.4567C18.556 20.0693 18.0693 20.556 17.4567 20.8097C17.2019 20.9152 16.9327 20.9591 16.6283 20.9798C16.3323 21 15.9687 21 15.5178 21H14.2322C13.7813 21 13.4177 21 13.1217 20.9798C12.8173 20.9591 12.5481 20.9152 12.2933 20.8097C11.6807 20.556 11.194 20.0693 10.9403 19.4567C10.8347 19.2019 10.7909 18.9327 10.7702 18.6283C10.75 18.3323 10.75 17.9687 10.75 17.5178V16.2322C10.75 15.7813 10.75 15.4177 10.7702 15.1217C10.7909 14.8173 10.8347 14.5481 10.9403 14.2933C11.194 13.6807 11.6807 13.194 12.2933 12.9403C12.5481 12.8347 12.8173 12.7909 13.1217 12.7702C13.4177 12.75 13.7813 12.75 14.2322 12.75ZM13.1897 13.7679C12.9363 13.7851 12.7886 13.8175 12.676 13.8642C12.3084 14.0164 12.0164 14.3084 11.8642 14.676C11.8175 14.7886 11.7851 14.9363 11.7679 15.1897C11.7503 15.4477 11.75 15.7772 11.75 16.25V17.5C11.75 17.9728 11.7503 18.3023 11.7679 18.5603C11.7851 18.8137 11.8175 18.9614 11.8642 19.074C12.0164 19.4416 12.3084 19.7336 12.676 19.8858C12.7886 19.9325 12.9363 19.9649 13.1897 19.9821C13.4477 19.9997 13.7772 20 14.25 20H15.5C15.9728 20 16.3023 19.9997 16.5603 19.9821C16.8137 19.9649 16.9614 19.9325 17.074 19.8858C17.4416 19.7336 17.7336 19.4416 17.8858 19.074C17.9325 18.9614 17.9649 18.8137 17.9821 18.5603C17.9997 18.3023 18 17.9728 18 17.5V16.25C18 15.7772 17.9997 15.4477 17.9821 15.1897C17.9649 14.9363 17.9325 14.7886 17.8858 14.676C17.7336 14.3084 17.4416 14.0164 17.074 13.8642C16.9614 13.8175 16.8137 13.7851 16.5603 13.7679C16.3023 13.7503 15.9728 13.75 15.5 13.75H14.25C13.7772 13.75 13.4477 13.7503 13.1897 13.7679Z" fill="#8E9BAA"/>
</svg>
