
<svg width="14" height="17" viewBox="0 0 14 17" fill="none" xmlns="http://www.w3.org/2000/svg">
<path d="M13.6875 4.23632L9.80638 0.479596C9.57039 0.249984 9.24829 0.119232 8.91663 0.119232L1.60729 0.100098C0.720729 0.100098 0 0.814448 0 1.69463V14.8272C0 15.6914 0.743052 16.4249 1.62323 16.4249H12.4342C13.2984 16.4249 14 15.7074 14 14.824V4.9985C14 4.70192 13.8884 4.43085 13.6875 4.23632ZM9.79043 2.23996L11.7964 4.17891H10.138C9.95308 4.17891 9.79043 4.03541 9.79043 3.87276V2.23996ZM12.4342 15.1493H1.62323C1.44465 15.1493 1.27563 14.993 1.27563 14.824V1.69463C1.27563 1.52561 1.43189 1.37572 1.60729 1.37572L8.51481 1.39486V3.87276C8.51481 4.74338 9.24191 5.45454 10.138 5.45454H12.7244V14.824C12.7244 14.9835 12.6159 15.1493 12.4342 15.1493Z" fill="#0063DA"/>
<path d="M2.77441 8.61169C2.77441 8.96249 3.06143 9.2495 3.41223 9.2495H8.99309C9.34389 9.2495 9.63091 8.96249 9.63091 8.61169C9.63091 8.26089 9.34389 7.97388 8.99309 7.97388H3.41223C3.06143 7.97388 2.77441 8.26089 2.77441 8.61169Z" fill="#0063DA"/>
<path d="M3.38 6.69823H7.07932C7.43011 6.69823 7.71713 6.41122 7.71713 6.06042C7.71713 5.70962 7.43011 5.42261 7.07932 5.42261H3.38C3.0292 5.42261 2.74219 5.70962 2.74219 6.06042C2.74219 6.41122 3.0292 6.69823 3.38 6.69823Z" fill="#0063DA"/>
<path d="M10.5876 10.5251H3.41223C3.06143 10.5251 2.77441 10.8122 2.77441 11.163C2.77441 11.5138 3.06143 11.8008 3.41223 11.8008H10.5876C10.9384 11.8008 11.2254 11.5138 11.2254 11.163C11.2254 10.8122 10.9384 10.5251 10.5876 10.5251Z" fill="#0063DA"/>
</svg>
