<svg width="48" height="48" viewBox="0 0 48 48" fill="none" xmlns="http://www.w3.org/2000/svg">
<circle cx="24" cy="24" r="23.5" fill="white" stroke="#E2E9F3"/>
<g clip-path="url(#clip0_3682_5337)">
<path d="M25.6719 24.0001L28.0278 26.7084L31.1957 28.7445L31.7481 24.0168L31.1957 19.3945L27.967 21.1834L25.6719 24.0001Z" fill="#00832D"/>
<path d="M12 28.3055V32.3333C12 33.2541 12.7416 33.9999 13.6571 33.9999H17.6619L18.4905 30.9555L17.6619 28.3055L14.9138 27.4722L12 28.3055Z" fill="#0066DA"/>
<path d="M17.6619 14L12 19.6944L14.9138 20.5278L17.6619 19.6944L18.4767 17.0806L17.6619 14Z" fill="#E94235"/>
<path d="M17.6619 19.6943H12V28.3054H17.6619V19.6943Z" fill="#2684FC"/>
<path d="M34.8135 16.411L31.1954 19.3943V28.7443L34.8301 31.7416C35.3742 32.1693 36.1696 31.7791 36.1696 31.0832V17.0555C36.1696 16.3513 35.3563 15.9652 34.8135 16.411ZM25.6716 23.9999V28.3055H17.6621V33.9999H29.5383C30.4539 33.9999 31.1954 33.2541 31.1954 32.3332V28.7443L25.6716 23.9999Z" fill="#00AC47"/>
<path d="M29.5383 14H17.6621V19.6944H25.6716V24L31.1954 19.3972V15.6667C31.1954 14.7458 30.4539 14 29.5383 14Z" fill="#FFBA00"/>
</g>
<defs>
<clipPath id="clip0_3682_5337">
<rect width="24.1667" height="20" fill="white" transform="translate(12 14)"/>
</clipPath>
</defs>
</svg>
