<svg width="18" height="18" viewBox="0 0 18 18" fill="none" xmlns="http://www.w3.org/2000/svg">
<path d="M9 0C13.9706 0 18 4.02944 18 9C18 13.9706 13.9706 18 9 18C4.02944 18 0 13.9706 0 9C0 4.02944 4.02944 0 9 0ZM9 12.75C8.37868 12.75 7.875 13.2537 7.875 13.875C7.875 14.4963 8.37868 15 9 15C9.62132 15 10.125 14.4963 10.125 13.875C10.125 13.2537 9.62132 12.75 9 12.75ZM9 3.75C7.34315 3.75 6 5.09315 6 6.75C6 7.16421 6.33579 7.5 6.75 7.5C7.16421 7.5 7.5 7.16421 7.5 6.75C7.5 5.92157 8.17157 5.25 9 5.25C9.82843 5.25 10.5 5.92157 10.5 6.75C10.5 7.30587 10.3761 7.61898 9.95097 8.09632L9.77706 8.28382L9.38093 8.68814C8.56767 9.54046 8.25 10.1542 8.25 11.25C8.25 11.6642 8.58579 12 9 12C9.41421 12 9.75 11.6642 9.75 11.25C9.75 10.6941 9.87386 10.381 10.299 9.90368L10.4729 9.71618L10.8691 9.31186C11.6823 8.45954 12 7.8458 12 6.75C12 5.09315 10.6569 3.75 9 3.75Z" fill="#8E9BAA"/>
</svg>
