<svg width="17" height="17" viewBox="0 0 17 17" fill="none" xmlns="http://www.w3.org/2000/svg">
<path d="M8.04004 16.7C10.1618 16.7 12.1965 15.8571 13.6969 14.3568C15.1972 12.8564 16.04 10.8214 16.04 8.69995C16.04 6.57846 15.1972 4.54351 13.6969 3.04309C12.1965 1.54283 10.1615 0.699951 8.04004 0.699951C5.91855 0.699951 3.8836 1.5428 2.38318 3.04309C0.882919 4.54348 0.0400391 6.57846 0.0400391 8.69995C0.042335 10.821 0.885826 12.8544 2.38572 14.3542C3.88549 15.8541 5.91914 16.6976 8.03997 16.6999L8.04004 16.7ZM8.04004 1.84269C9.85867 1.84269 11.6028 2.56514 12.8887 3.85113C14.1747 5.13711 14.8972 6.88126 14.8972 8.69982C14.8972 10.5184 14.1747 12.2626 12.8887 13.5485C11.6027 14.8345 9.8586 15.557 8.04004 15.557C6.22148 15.557 4.47723 14.8345 3.19135 13.5485C1.90536 12.2625 1.18291 10.5184 1.18291 8.69982C1.18482 6.88181 1.90791 5.13898 3.1935 3.85309C4.4791 2.56749 6.2221 1.84439 8.04024 1.84249L8.04004 1.84269Z" fill="#0063DA"/>
<path d="M8.77891 11.9611C8.92406 12.1012 9.13235 12.1546 9.32699 12.1012C9.52151 12.0478 9.67354 11.8957 9.727 11.7012C9.78031 11.5066 9.727 11.2983 9.58682 11.1531L7.13373 8.69993L9.58695 6.24672H9.58682C9.727 6.10157 9.78032 5.89328 9.727 5.69864C9.67356 5.50412 9.52151 5.35209 9.327 5.29863C9.13235 5.24532 8.92405 5.29863 8.77891 5.43881L5.92174 8.29598C5.8146 8.40312 5.75439 8.54841 5.75439 8.69993C5.75439 8.85146 5.8146 8.99675 5.92174 9.10389L8.77891 11.9611Z" fill="#0063DA"/>
</svg>
