<svg width="10" height="13" viewBox="0 0 10 13" fill="none" xmlns="http://www.w3.org/2000/svg">
<path d="M5.3241 0.199295C5.33021 0.206636 5.33266 0.216424 5.33878 0.223766L9.61024 4.94305C9.84884 5.20857 9.84884 5.63926 9.61024 5.90478C9.60779 5.90722 9.60535 5.90845 9.6029 5.90967C9.54982 5.97396 9.48333 6.02589 9.40809 6.06181C9.33286 6.09774 9.25068 6.11681 9.16731 6.11768H0.623162C0.538261 6.1163 0.454697 6.09631 0.378373 6.0591C0.302049 6.02189 0.234827 5.96837 0.181455 5.90233L0.179008 5.90478C0.0635401 5.77118 0 5.6005 0 5.42391C0 5.24733 0.0635401 5.07665 0.179008 4.94305L4.46026 0.199295C4.51356 0.136819 4.57978 0.0866489 4.65434 0.052247C4.72891 0.0178447 4.81006 2.90871e-05 4.89218 2.90871e-05C4.9743 2.90871e-05 5.05544 0.0178447 5.13001 0.052247C5.20458 0.0866489 5.2708 0.136819 5.3241 0.199295Z" fill="#697A8D"/>
<path d="M5.3241 12.8007C5.33021 12.7934 5.33266 12.7836 5.33878 12.7762L9.61024 8.05695C9.84884 7.79143 9.84884 7.36074 9.61024 7.09522C9.60779 7.09278 9.60535 7.09155 9.6029 7.09033C9.54982 7.02604 9.48333 6.97411 9.40809 6.93819C9.33286 6.90226 9.25068 6.88319 9.16731 6.88232H0.623162C0.538261 6.8837 0.454697 6.90369 0.378373 6.9409C0.302049 6.97811 0.234827 7.03163 0.181455 7.09767L0.179008 7.09522C0.0635401 7.22882 0 7.3995 0 7.57609C0 7.75267 0.0635401 7.92335 0.179008 8.05695L4.46026 12.8007C4.51356 12.8632 4.57978 12.9134 4.65434 12.9478C4.72891 12.9822 4.81006 13 4.89218 13C4.9743 13 5.05544 12.9822 5.13001 12.9478C5.20458 12.9134 5.2708 12.8632 5.3241 12.8007Z" fill="url(#paint0_linear_216_6153)"/>
<defs>
<linearGradient id="paint0_linear_216_6153" x1="1.88254" y1="7.8235" x2="5.13612" y2="13.9763" gradientUnits="userSpaceOnUse">
<stop stop-color="#6E0674"/>
<stop offset="1" stop-color="#4660AF"/>
</linearGradient>
</defs>
</svg>
