<svg width="55" height="57" viewBox="0 0 55 57" fill="none" xmlns="http://www.w3.org/2000/svg">
<rect width="54.4007" height="56.7391" rx="15.1304" fill="#FFEFCA"/>
<path d="M22.0089 17C21.7077 17 21.4635 17.2443 21.4635 17.5454V20.5455C21.4635 20.8467 21.7077 21.0909 22.0089 21.0909C22.3102 21.0909 22.5543 20.8467 22.5543 20.5455V17.5454C22.5543 17.2441 22.31 17 22.0089 17ZM32.918 17C32.6169 17 32.3726 17.2443 32.3726 17.5454V20.5455C32.3726 20.8467 32.6169 21.0909 32.918 21.0909C33.2194 21.0909 33.4634 20.8467 33.4634 20.5455V17.5454C33.4634 17.2441 33.2192 17 32.918 17ZM18.1907 19.1819C16.9783 19.1819 16.0002 20.1597 16.0002 21.3723V26.2727H38.9094V21.3723C38.9094 20.1599 37.9314 19.1819 36.719 19.1819H34.0086V21.1166C34.6592 21.4958 35.0995 22.198 35.0995 23.0002C35.0995 24.1987 34.1163 25.1821 32.9176 25.1821C31.7191 25.1821 30.7357 24.1988 30.7357 23.0002C30.7357 22.198 31.1761 21.4958 31.8265 21.1166V19.1819H23.0904V21.1081C23.7466 21.4857 24.1898 22.1938 24.1898 23.0002C24.1898 24.1987 23.2067 25.1821 22.008 25.1821C20.8095 25.1821 19.8261 24.1988 19.8261 23.0002C19.8261 22.2006 20.2614 21.4966 20.9086 21.1166V19.1819H18.1907ZM22.0088 21.9092C21.4 21.9092 20.918 22.391 20.918 23C20.918 23.6089 21.4 24.0908 22.0088 24.0908C22.6178 24.0908 23.0996 23.6089 23.0996 23C23.0996 22.391 22.6177 21.9092 22.0088 21.9092ZM32.9179 21.9092C32.3092 21.9092 31.8271 22.391 31.8271 23C31.8271 23.6089 32.3092 24.0908 32.9179 24.0908C33.5269 24.0908 34.0087 23.6089 34.0087 23C34.0087 22.391 33.5269 21.9092 32.9179 21.9092ZM16 27.3637V38.8096C16 40.022 16.9778 41 18.1904 41H36.7189C37.9314 41 38.9094 40.0222 38.9094 38.8096V27.3637H16Z" fill="#FEB95A"/>
</svg>
