<svg width="55" height="57" viewBox="0 0 55 57" fill="none" xmlns="http://www.w3.org/2000/svg">
<rect width="54.4007" height="56.7391" rx="15.1304" fill="#FFEFCA"/>
<path d="M34.5655 16.0002H20.7709C20.0363 16.0002 19.3317 16.292 18.8123 16.8114C18.2927 17.331 18.0009 18.0354 18.0009 18.7702V36.3135C17.9271 39.4715 22.6175 41.078 25.1564 39.1945C25.4334 39.139 36.7255 30.6903 36.9566 30.598H36.9568C37.1819 30.4125 37.3194 30.1412 37.3354 29.85V18.77C37.3354 18.0352 37.0436 17.3308 36.524 16.8112C36.0046 16.2918 35.3 16 34.5654 16L34.5655 16.0002ZM21.6942 25.2335C21.6942 24.9887 21.7915 24.7537 21.9648 24.5806C22.1379 24.4075 22.3727 24.3102 22.6175 24.3102H32.7742C33.1042 24.3102 33.409 24.4862 33.5738 24.7719C33.7387 25.0575 33.7387 25.4096 33.5738 25.6952C33.409 25.9809 33.1041 26.1569 32.7742 26.1569H22.6175C22.3727 26.1569 22.1379 26.0596 21.9648 25.8865C21.7915 25.7134 21.6942 25.4784 21.6942 25.2335ZM30.0042 22.4635H25.3875C25.0578 22.4635 24.753 22.2875 24.5881 22.0019C24.423 21.7162 24.423 21.3642 24.5881 21.0785C24.753 20.7929 25.0578 20.6169 25.3875 20.6169H30.0042C30.3342 20.6169 30.639 20.7929 30.8039 21.0785C30.9687 21.3642 30.9687 21.7162 30.8039 22.0019C30.639 22.2875 30.3342 22.4635 30.0042 22.4635ZM26.8465 35.7041V31.6969C26.8465 31.4521 26.9438 31.2171 27.1169 31.044C27.29 30.8709 27.525 30.7736 27.7698 30.7736H33.5868L26.8465 35.7041Z" fill="#FEB95A"/>
</svg>
