<svg width="24" height="24" viewBox="0 0 24 24" fill="none" xmlns="http://www.w3.org/2000/svg">
<path d="M12 0C8.81743 0 5.76534 1.26427 3.51471 3.51471C1.26432 5.76529 0 8.81777 0 12C0 15.1822 1.26427 18.2347 3.51471 20.4853C5.76529 22.7357 8.81777 24 12 24C15.1822 24 18.2347 22.7357 20.4853 20.4853C22.7357 18.2347 24 15.1822 24 12C23.9966 8.81841 22.7313 5.76828 20.4815 3.51862C18.2318 1.26878 15.1813 0.00352651 12.0001 9.79062e-05L12 0ZM12 22.2859C9.27206 22.2859 6.65579 21.2022 4.72696 19.2732C2.79798 17.3443 1.7143 14.728 1.7143 12.0002C1.7143 9.27235 2.79798 6.65599 4.72696 4.72716C6.65594 2.79818 9.27216 1.7145 12 1.7145C14.7278 1.7145 17.3442 2.79818 19.273 4.72716C21.202 6.65614 22.2857 9.27235 22.2857 12.0002C22.2828 14.7272 21.1982 17.3415 19.2698 19.2703C17.3414 21.1987 14.7269 22.2833 11.9997 22.2862L12 22.2859Z" fill="#0063DA"/>
<path d="M16.0344 7.96562C15.8737 7.80491 15.6558 7.7146 15.4285 7.7146C15.2012 7.7146 14.9833 7.80491 14.8226 7.96562L11.9999 10.7881L9.17725 7.96543V7.96562C8.95952 7.75535 8.64709 7.67537 8.35512 7.75535C8.06335 7.83551 7.8353 8.06358 7.75511 8.35535C7.67514 8.64732 7.75511 8.95976 7.96539 9.17748L10.7879 12.0001L7.96519 14.8228H7.96538C7.79988 14.9824 7.70575 15.202 7.70364 15.4318C7.70173 15.6618 7.79204 15.8828 7.95467 16.0454C8.11729 16.208 8.33828 16.2983 8.56824 16.2964C8.79802 16.2943 9.01767 16.2002 9.17726 16.0347L11.9999 13.2122L14.8226 16.0349V16.0347C15.0403 16.245 15.3528 16.3249 15.6447 16.245C15.9365 16.1648 16.1645 15.9367 16.2447 15.645C16.3247 15.353 16.2447 15.0405 16.0345 14.8228L13.212 12.0002L16.0346 9.17749H16.0345C16.1952 9.01678 16.2855 8.79885 16.2855 8.57156C16.2855 8.34427 16.1952 8.12634 16.0345 7.96563L16.0344 7.96562Z" fill="#0063DA"/>
</svg>
