<svg width="17" height="17" viewBox="0 0 17 17" fill="none" xmlns="http://www.w3.org/2000/svg">
<path d="M8.08008 16.8999C5.95836 16.8999 3.92364 16.0571 2.42322 14.5568C0.922959 13.0564 0.0800791 11.0214 0.0800791 8.8999C0.0800791 6.77842 0.922927 4.74346 2.42322 3.24304C3.9236 1.74278 5.95859 0.899902 8.08008 0.899902C10.2016 0.899902 12.2365 1.74275 13.7369 3.24304C15.2372 4.74343 16.0801 6.77842 16.0801 8.8999C16.0778 11.021 15.2343 13.0544 13.7344 14.5542C12.2346 16.0541 10.201 16.8976 8.08014 16.8998L8.08008 16.8999ZM8.08008 2.04264C6.26145 2.04264 4.51727 2.76509 3.23139 4.05108C1.9454 5.33707 1.22295 7.08121 1.22295 8.89977C1.22295 10.7183 1.9454 12.4626 3.23139 13.7485C4.51737 15.0345 6.26152 15.7569 8.08008 15.7569C9.89864 15.7569 11.6429 15.0345 12.9288 13.7485C14.2148 12.4625 14.9372 10.7183 14.9372 8.89977C14.9353 7.08176 14.2122 5.33893 12.9266 4.05304C11.641 2.76744 9.89802 2.04434 8.07988 2.04244L8.08008 2.04264Z" fill="#0063DA"/>
<path d="M7.34121 12.161C7.19606 12.3012 6.98777 12.3545 6.79312 12.3012C6.59861 12.2477 6.44657 12.0957 6.39312 11.9012C6.3398 11.7065 6.39312 11.4982 6.5333 11.3531L8.98638 8.89989L6.53317 6.44667H6.5333C6.39312 6.30152 6.3398 6.09324 6.39312 5.89859C6.44656 5.70407 6.59861 5.55204 6.79312 5.49859C6.98776 5.44527 7.19606 5.49859 7.34121 5.63877L10.1984 8.49593C10.3055 8.60307 10.3657 8.74836 10.3657 8.89989C10.3657 9.05141 10.3055 9.1967 10.1984 9.30384L7.34121 12.161Z" fill="#0063DA"/>
</svg>
