<svg width="18" height="19" viewBox="0 0 18 19" fill="none" xmlns="http://www.w3.org/2000/svg">
<path d="M9.52953 0.667804C10.0245 0.658804 10.4934 0.837901 10.8435 1.18079C11.1954 1.51289 11.3835 1.97278 11.3835 2.45877C11.3835 3.44875 12.2025 4.25064 13.2204 4.25064C13.5345 4.25064 13.8494 4.15974 14.1293 4.00674C15.0014 3.53785 16.0904 3.83575 16.5854 4.67273L17.1983 5.72571C17.3513 5.99571 17.4404 6.3017 17.4404 6.6167C17.4404 7.25568 17.0903 7.85057 16.5233 8.16467C16.2434 8.31767 16.0094 8.55166 15.8483 8.82256C15.3704 9.66764 15.6683 10.7377 16.5233 11.2255C17.3864 11.7196 17.6834 12.8005 17.1983 13.6546L16.5854 14.6725C16.2614 15.2295 15.6584 15.5724 15.0104 15.5724C14.6864 15.5724 14.3624 15.4905 14.0933 15.3285C13.8045 15.1755 13.4904 15.0855 13.1745 15.0855C12.6885 15.0855 12.2205 15.2754 11.8794 15.6165C11.5275 15.9504 11.3385 16.4085 11.3385 16.8855C11.3385 17.8665 10.5204 18.6675 9.50253 18.6675H8.27045C7.78356 18.6675 7.32457 18.4695 6.99157 18.1365C6.64958 17.7945 6.47048 17.3445 6.47048 16.8765C6.47048 15.8865 5.6596 15.0855 4.64351 15.0855C4.30962 15.0855 3.98563 15.1755 3.70663 15.3474C3.28364 15.5805 2.77965 15.6435 2.31166 15.5265C1.84366 15.4005 1.43867 15.0945 1.19568 14.6896L0.620586 13.6726C0.349691 13.2505 0.268692 12.7456 0.39559 12.2686C0.520688 11.7916 0.845582 11.3866 1.28567 11.1436C1.56557 10.9906 1.79866 10.7656 1.96066 10.4866C2.42955 9.64064 2.13166 8.57866 1.28567 8.08367C0.430689 7.59768 0.133695 6.5267 0.620586 5.68071L1.19568 4.67273C1.43867 4.25064 1.84366 3.94374 2.32066 3.81775C2.79855 3.69175 3.30164 3.76285 3.72463 4.00674C4.01262 4.15974 4.32762 4.24074 4.64351 4.24074C5.1295 4.24074 5.5966 4.05174 5.93859 3.71875C6.28058 3.38575 6.47048 2.92676 6.47048 2.45877C6.47048 1.46879 7.28857 0.667804 8.30555 0.667804H9.52953ZM9.89042 7.40058C8.94544 7.01269 7.85556 7.21969 7.12657 7.93067C6.40658 8.63266 6.18159 9.70364 6.57758 10.6225C6.96547 11.5486 7.88256 12.1516 8.90854 12.1516H8.91844C9.59343 12.1606 10.2234 11.9005 10.6995 11.4316C11.1765 10.9726 11.4465 10.3426 11.4465 9.68564C11.4555 8.68666 10.8345 7.77768 9.89042 7.40058Z" fill="#8E9BAA"/>
</svg>
