<svg width="5" height="18" viewBox="0 0 5 18" fill="none" xmlns="http://www.w3.org/2000/svg">
<g id="Group 21558">
<path id="Vector" d="M2.14801 4.29216C3.33241 4.29216 4.29601 3.32991 4.29601 2.14706C4.29601 0.963162 3.33245 0 2.14801 0C0.963567 0 0 0.963195 0 2.14706C0 3.32988 0.963567 4.29216 2.14801 4.29216Z" fill="#0063DA"/>
<path id="Vector_2" d="M2.14801 6.85303C0.9636 6.85303 0 7.81622 0 9.00009C0 10.184 0.963567 11.1471 2.14801 11.1471C3.33245 11.1471 4.29601 10.184 4.29601 9.00009C4.29601 7.81619 3.33245 6.85303 2.14801 6.85303Z" fill="#0063DA"/>
<path id="Vector_3" d="M2.14801 13.708C0.9636 13.708 0 14.6703 0 15.8531C0 17.037 0.963567 18 2.14801 18C3.33245 18 4.29601 17.0368 4.29601 15.8531C4.29601 14.6703 3.33245 13.708 2.14801 13.708Z" fill="#0063DA"/>
</g>
</svg>
